# xmcd
#
# Track frame offsets:
#	150
#	17607
#	32397
#	46657
#	63270
#	78452
#	91147
#	106007
#	121552
#	139037
#	153960
#	174672
#	191865
#	206795
#	221505
#
# Disc length: 3242 seconds
#
# Revision: 1
# Processed by: cddbd v1.5.1PL2 Copyright (c) Steve Scherf et al.
# Submitted via: audiograbber 1.83.01
#
DISCID=b70ca80f
DTITLE=Music Maestro - MM6238
DYEAR=1900
DGENRE=Karaoke
TTITLE0=Montgomery, John Michael - Love Working On You
TTITLE1=McCoy, Neil - Party On
TTITLE2=Berg, Matraca - Back In The Saddle
TTITLE3=Kersh, David - I'll Never Stop Loving You
TTITLE4=Peterson, Michael - Too Good To Be True
TTITLE5=Travis, Randy - Out Of My Bones
TTITLE6=Wills, Mark - I Do
TTITLE7=Singletary, Daryle - That's Where You're Wrong
TTITLE8=Kershaw, Sammy - Matches
TTITLE9=Ketchum, Hal - I Saw The Light
TTITLE10=McGraw, Tim - One Of These Days
TTITLE11=Wright, Chely - I Already Do
TTITLE12=Morgan, Lorrie - I'm Not That Easy To Forget
TTITLE13=Stockton, Shane - What If I'm Right
TTITLE14=Rimes, LeAnn - Committment
EXTD=As Listed In KJ Pro
EXTT0=
EXTT1=
EXTT2=
EXTT3=
EXTT4=
EXTT5=
EXTT6=
EXTT7=
EXTT8=
EXTT9=
EXTT10=
EXTT11=
EXTT12=
EXTT13=
EXTT14=
PLAYORDER=
